<svg width="247" height="247" viewBox="0 0 247 247" fill="none" xmlns="http://www.w3.org/2000/svg">
<mask id="mask0_1_343" style="mask-type:alpha" maskUnits="userSpaceOnUse" x="0" y="0" width="247" height="247">
<rect width="247" height="247" fill="#D9D9D9"/>
</mask>
<g mask="url(#mask0_1_343)">
<path d="M123.5 195.542C123.5 178.389 117.497 163.809 105.49 151.802C93.4826 139.795 78.9028 133.792 61.75 133.792C61.75 150.944 67.7535 165.524 79.7604 177.531C91.7674 189.538 106.347 195.542 123.5 195.542ZM123.5 143.569C127.96 143.569 131.733 142.025 134.821 138.937C137.908 135.85 139.452 132.076 139.452 127.617V126.073C140.824 127.102 142.239 127.874 143.697 128.389C145.155 128.903 146.828 129.16 148.715 129.16C153.174 129.16 156.948 127.617 160.035 124.529C163.123 121.442 164.667 117.668 164.667 113.208C164.667 109.778 163.852 106.776 162.222 104.203C160.593 101.63 158.32 99.8292 155.404 98.8C158.32 97.7708 160.593 95.9698 162.222 93.3969C163.852 90.824 164.667 87.8222 164.667 84.3917C164.667 79.9319 163.123 76.1583 160.035 73.0708C156.948 69.9833 153.174 68.4396 148.715 68.4396C146.828 68.4396 145.155 68.6969 143.697 69.2114C142.239 69.726 140.824 70.4979 139.452 71.5271V69.9833C139.452 65.5236 137.908 61.75 134.821 58.6625C131.733 55.575 127.96 54.0312 123.5 54.0312C119.04 54.0312 115.267 55.575 112.179 58.6625C109.092 61.75 107.548 65.5236 107.548 69.9833V71.5271C106.176 70.4979 104.761 69.726 103.303 69.2114C101.845 68.6969 100.172 68.4396 98.2854 68.4396C93.8257 68.4396 90.0521 69.9833 86.9646 73.0708C83.8771 76.1583 82.3333 79.9319 82.3333 84.3917C82.3333 87.8222 83.1481 90.824 84.7776 93.3969C86.4071 95.9698 88.6799 97.7708 91.5958 98.8C88.6799 99.8292 86.4071 101.63 84.7776 104.203C83.1481 106.776 82.3333 109.778 82.3333 113.208C82.3333 117.668 83.8771 121.442 86.9646 124.529C90.0521 127.617 93.8257 129.16 98.2854 129.16C100.172 129.16 101.845 128.903 103.303 128.389C104.761 127.874 106.176 127.102 107.548 126.073V127.617C107.548 132.076 109.092 135.85 112.179 138.937C115.267 142.025 119.04 143.569 123.5 143.569ZM123.5 114.752C119.04 114.752 115.267 113.251 112.179 110.249C109.092 107.248 107.548 103.431 107.548 98.8C107.548 94.3403 109.092 90.5667 112.179 87.4792C115.267 84.3917 119.04 82.8479 123.5 82.8479C127.96 82.8479 131.733 84.3917 134.821 87.4792C137.908 90.5667 139.452 94.3403 139.452 98.8C139.452 103.431 137.908 107.248 134.821 110.249C131.733 113.251 127.96 114.752 123.5 114.752ZM123.5 195.542C140.653 195.542 155.233 189.538 167.24 177.531C179.247 165.524 185.25 150.944 185.25 133.792C168.097 133.792 153.517 139.795 141.51 151.802C129.503 163.809 123.5 178.389 123.5 195.542ZM41.1667 226.417C35.5063 226.417 30.6606 224.401 26.6297 220.37C22.5988 216.339 20.5833 211.494 20.5833 205.833V41.1667C20.5833 35.5062 22.5988 30.6606 26.6297 26.6297C30.6606 22.5988 35.5063 20.5833 41.1667 20.5833H205.833C211.494 20.5833 216.339 22.5988 220.37 26.6297C224.401 30.6606 226.417 35.5062 226.417 41.1667V205.833C226.417 211.494 224.401 216.339 220.37 220.37C216.339 224.401 211.494 226.417 205.833 226.417H41.1667ZM41.1667 205.833H205.833V41.1667H41.1667V205.833Z" fill="#EFCC4D"/>
</g>
</svg>
